<svg width="687" height="687" viewBox="0 0 687 687" fill="none" xmlns="http://www.w3.org/2000/svg">
<path d="M343.5 633.328L279.094 654.797L257.625 633.328L171.75 654.797C171.75 654.797 172.55 622.194 171.75 622.594C130.601 643.168 85.875 644.062 85.875 644.062L128.812 558.188L21.4688 611.859L64.4062 525.984C64.4062 525.984 10.7344 538.507 10.7344 536.719C10.7344 457.106 64.4062 343.5 64.4062 343.5L32.2031 332.766C42.9375 296.984 96.6094 182.484 96.6094 182.484C96.6094 182.484 74.3651 172.748 75.1406 171.75C124.116 108.686 225.422 75.1406 225.422 75.1406L205.742 62.6176C237.945 46.5161 288.427 32.2031 343.5 32.2031C398.573 32.2031 449.055 46.5161 481.258 62.6176L461.578 75.1406C461.578 75.1406 562.884 108.686 611.859 171.75C612.635 172.748 590.391 182.484 590.391 182.484C590.391 182.484 644.062 296.984 654.797 332.766L622.594 343.5C622.594 343.5 676.266 457.106 676.266 536.719C676.266 538.507 622.594 525.984 622.594 525.984L665.531 611.859L558.188 558.188L601.125 644.062C601.125 644.062 556.399 643.168 515.25 622.594C514.45 622.194 515.25 654.797 515.25 654.797L429.375 633.328L407.906 654.797L343.5 633.328Z" fill="#E6E1D7"/>
<path d="M297.879 327.397H351.551H405.223C405.223 327.397 475.588 213.069 616.309 239.151C602.468 208.248 590.391 182.483 590.391 182.483C590.391 182.483 612.635 172.748 611.859 171.749C562.884 108.684 461.578 75.1393 461.578 75.1393L481.258 62.6163C477.703 60.8384 473.911 59.0847 469.928 57.3672C451.264 52.6105 430.381 48.3033 415.958 48.3033L405.797 38.1419C397.369 36.5438 388.653 35.2154 379.708 34.2265L351.551 48.3033L320.943 33.0001C313.968 33.4845 307.105 34.1822 300.383 35.0651L287.145 48.3033C265.633 48.3033 229.755 57.8837 208.301 64.2439L225.422 75.1393C225.422 75.1393 211.058 79.8973 190.535 89.1932V91.2408C184.872 92.6578 178.644 95.0139 172.107 98.0263C161.35 103.475 149.773 109.873 138.174 117.207C131.688 121.402 125.288 125.784 119.172 130.133C103.834 141.39 89.2631 154.319 77.4312 168.869L93.9259 177.116C93.0094 178.032 92.0742 179.01 91.1229 180.037C94.2613 181.457 96.6095 182.483 96.6095 182.483C96.6095 182.483 83.4719 210.513 68.896 243.166C221.541 203.403 297.879 327.397 297.879 327.397Z" fill="#E6E1D7"/>
<path d="M206.469 377.044C206.469 377.044 195.735 526.251 346.016 563.553L313.813 501.384C313.813 488.949 281.61 401.911 206.469 377.044Z" fill="#E0E2DB"/>
<path d="M485.563 377.044C410.422 401.911 378.219 488.949 378.219 501.384L346.016 563.553C496.297 526.251 485.563 377.044 485.563 377.044Z" fill="#E0E2DB"/>
<path d="M622.594 343.499L636.499 338.864C632.907 331.471 630.645 327.397 630.645 327.397L651.256 322.245C641.886 296.376 622.223 252.034 607.768 220.222C561.463 176.362 487.957 144.913 351.551 144.913C175.397 144.913 104.122 197.353 60.8921 261.255C51.7679 282.07 42.908 303.03 37.1007 318.559L72.457 327.397C72.457 327.397 69.2421 333.19 64.3901 343.493L64.4062 343.499C64.4062 343.499 59.2283 354.461 52.0899 371.953C36.9075 410.23 18.7852 468.975 18.7852 531.35C18.7852 531.35 72.457 359.6 190.535 370.335C308.613 381.069 351.551 488.413 351.551 488.413C351.551 488.413 394.488 381.069 512.566 370.335C600.606 362.331 652.831 455.761 673.711 503.823C663.05 429.146 622.594 343.499 622.594 343.499Z" fill="#E0E2DB"/>
<path d="M165.041 311.297C179.862 311.297 191.877 299.282 191.877 284.461C191.877 269.64 179.862 257.625 165.041 257.625C150.22 257.625 138.205 269.64 138.205 284.461C138.205 299.282 150.22 311.297 165.041 311.297Z" fill="#E0E2DB"/>
<path d="M520.617 311.297C535.438 311.297 547.453 299.282 547.453 284.461C547.453 269.64 535.438 257.625 520.617 257.625C505.796 257.625 493.781 269.64 493.781 284.461C493.781 299.282 505.796 311.297 520.617 311.297Z" fill="#E0E2DB"/>
<path d="M345.479 257.624C393.501 257.624 413.716 347.524 417.088 375.702C419.18 393.173 421.288 431.42 408.095 450.842C385.612 483.941 345.141 590.389 345.141 590.389C345.141 590.389 302.885 483.941 279.41 450.842C265.634 431.42 267.837 393.173 270.021 375.702C273.541 347.524 295.339 257.624 345.479 257.624Z" fill="#E6AF2E"/>
<path d="M687 536.717C687 469.393 650.835 380.771 637.277 349.919L658.19 342.949C663.694 341.113 666.744 335.237 665.078 329.679C655.995 299.406 618.054 216.594 604.706 187.799C604.983 187.672 605.26 187.543 605.538 187.413C616.332 182.374 620.8 180.289 622.276 174.489C623.093 171.279 622.367 167.78 620.336 165.164C583.105 117.223 518.413 86.1943 485.429 72.6838L487.019 71.6721C490.282 69.5963 492.175 65.9252 491.975 62.0635C491.775 58.2018 489.516 54.7453 486.055 53.0157C446.55 33.2605 393.258 21.4674 343.5 21.4674C293.742 21.4674 240.45 33.2605 200.942 53.0157C197.483 54.7453 195.222 58.2018 195.022 62.0635C194.822 65.9252 196.717 69.5963 199.979 71.6721L201.569 72.6838C168.586 86.1943 103.893 117.225 66.6605 165.168C64.6317 167.784 63.9071 171.282 64.7229 174.489C66.1989 180.289 70.6671 182.374 81.4605 187.413C81.7396 187.543 82.016 187.672 82.2924 187.799C68.9456 216.594 31.0036 299.407 21.9209 329.679C20.2531 335.237 23.3043 341.113 28.8084 342.949L49.7216 349.919C36.1655 380.771 0 469.393 0 536.717C0 541.703 3.41487 546.039 8.30304 547.263C9.28121 547.508 10.301 547.626 11.42 547.626C15.6279 547.626 30.1072 544.689 44.655 541.483L11.8682 607.057C9.80183 611.19 10.6109 616.181 13.8795 619.449C17.1468 622.716 22.1383 623.524 26.2697 621.459L104.81 582.188L76.2744 639.259C74.5932 642.621 74.7931 646.616 76.8018 649.795C78.8091 652.972 82.3139 654.85 86.091 654.793C87.7884 654.759 123.529 653.86 161.311 638.973C161.249 643.905 161.146 649.434 161.021 654.533C160.939 657.883 162.426 661.08 165.042 663.175C167.659 665.268 171.101 666.025 174.356 665.209L254.334 645.215L271.505 662.387C274.38 665.262 278.634 666.268 282.49 664.981L343.5 644.642L404.512 664.98C405.624 665.35 406.768 665.53 407.905 665.53C410.707 665.53 413.451 664.432 415.497 662.386L432.668 645.214L512.646 665.208C515.899 666.025 519.342 665.27 521.959 663.174C524.575 661.078 526.064 657.882 525.98 654.531C525.856 649.431 525.752 643.905 525.689 638.972C563.473 653.86 599.212 654.758 600.909 654.791C604.634 654.83 608.19 652.973 610.198 649.793C612.207 646.616 612.407 642.62 610.726 639.258L582.19 582.187L660.73 621.457C664.863 623.522 669.853 622.714 673.12 619.447C676.388 616.179 677.198 611.188 675.132 607.056L642.345 541.482C656.894 544.689 671.375 547.625 675.583 547.625C682.999 547.626 687 542.005 687 536.717ZM625.033 515.529C620.98 514.586 616.746 516.064 614.167 519.333C611.59 522.599 611.131 527.062 612.993 530.784L641.529 587.855L562.988 548.584C558.856 546.518 553.866 547.327 550.598 550.594C547.331 553.863 546.521 558.853 548.587 562.986L582.89 631.592C566.864 629.367 542.731 624.33 520.048 612.989C518.559 612.244 516.902 611.853 515.237 611.853C512.344 611.853 509.547 613.033 507.527 615.104C503.963 618.758 503.992 621.075 504.223 639.117C504.231 639.738 504.239 640.362 504.249 640.98L431.981 622.913C428.323 621.998 424.453 623.07 421.787 625.736L405.009 642.514L346.896 623.143C345.794 622.776 344.649 622.592 343.501 622.592C342.354 622.592 341.208 622.776 340.107 623.143L281.993 642.514L265.216 625.736C262.551 623.071 258.682 621.995 255.022 622.913L182.753 640.98C182.762 640.362 182.77 639.738 182.778 639.117C183.009 621.076 183.039 618.758 179.475 615.104C177.454 613.033 174.658 611.853 171.765 611.853C170.098 611.853 168.44 612.244 166.95 612.99C144.269 624.331 120.135 629.368 104.111 631.592L138.414 562.986C140.481 558.853 139.672 553.862 136.403 550.594C133.136 547.327 128.144 546.518 124.013 548.584L45.4722 587.855L74.0081 530.784C75.8692 527.062 75.4117 522.598 72.8341 519.333C70.2551 516.066 66.0271 514.584 61.9682 515.529C47.7411 518.85 32.1186 522.3 21.8928 524.339C26.8413 449.001 73.615 349.138 74.1142 348.082C75.4251 345.307 75.4841 342.102 74.2778 339.279C73.0716 336.456 70.714 334.285 67.8023 333.314L45.8022 325.981C61.1135 283.629 105.841 188.084 106.331 187.038C107.56 184.418 107.677 181.411 106.658 178.7C105.638 175.991 103.567 173.808 100.915 172.648C97.9861 171.366 94.7912 169.928 91.8567 168.567C140.616 115.054 227.875 85.6348 228.799 85.3289C232.735 84.0247 235.567 80.5736 236.077 76.4609C236.588 72.3483 234.684 68.3082 231.188 66.0835L228.36 64.2828C262.454 50.7709 304.095 42.9362 343.504 42.9362C382.913 42.9362 424.553 50.7709 458.648 64.2828L455.82 66.0835C452.324 68.3082 450.42 72.3483 450.931 76.4609C451.441 80.5736 454.275 84.026 458.209 85.3289C459.136 85.6362 546.337 114.971 595.153 168.567C592.217 169.926 589.022 171.365 586.091 172.648C583.439 173.808 581.368 175.991 580.349 178.702C579.329 181.411 579.447 184.418 580.676 187.038C581.166 188.084 625.896 283.629 641.204 325.981L619.204 333.314C616.293 334.286 613.934 336.457 612.728 339.28C611.521 342.103 611.582 345.307 612.893 348.084C613.392 349.14 660.169 448.944 665.114 524.339C654.883 522.3 639.26 518.85 625.033 515.529Z" fill="#191716"/>
<path d="M561.635 247.313C520.847 235.488 488.721 251.782 460.377 266.154C430.827 281.14 413.143 288.965 393.346 275.569C393.258 275.509 393.164 275.462 393.073 275.404C376.512 252.483 358.788 246.889 345.476 246.889C324.424 246.889 307.85 259.203 295.073 276.548C275.503 288.578 257.667 280.762 228.389 266.127C199.675 251.776 167.131 235.515 125.862 247.303C120.161 248.932 116.861 254.873 118.489 260.574C120.118 266.274 126.056 269.574 131.759 267.946C132.103 267.848 132.441 267.768 132.783 267.675C130.247 272.731 128.81 278.43 128.81 284.461C128.81 305.177 145.664 322.031 166.38 322.031C187.096 322.031 203.95 305.177 203.95 284.461C203.95 282.189 203.736 279.966 203.348 277.804C208.553 280.217 213.688 282.782 218.789 285.33C237.146 294.506 255.903 303.879 275.319 303.879C276.689 303.879 278.061 303.833 279.436 303.737C267.652 329.594 261.41 358.006 259.365 374.372C258.906 378.043 258.401 382.886 258.053 388.446C240.05 377.808 209.422 365.069 160.884 365.069C154.956 365.069 150.15 369.876 150.15 375.804C150.15 381.732 154.956 386.538 160.884 386.538C217.017 386.538 244.886 404.493 258.049 414.185C259.129 429.543 262.505 445.569 270.651 457.052C293.114 488.723 334.743 593.297 335.161 594.35C336.784 598.441 340.741 601.124 345.137 601.124C345.164 601.124 345.189 601.124 345.216 601.124C349.644 601.091 353.598 598.343 355.172 594.204C355.572 593.152 395.445 488.566 416.973 456.874C424.748 445.427 427.971 429.452 429.002 414.138C441.996 404.454 469.485 386.538 524.832 386.538C530.76 386.538 535.566 381.732 535.566 375.804C535.566 369.876 530.76 365.069 524.832 365.069C477.048 365.069 446.822 377.708 428.99 388.328C428.657 382.839 428.179 378.059 427.745 374.427C426.1 360.682 420.244 330.624 408.646 303.611C410.517 303.796 412.384 303.89 414.244 303.89C433.43 303.89 451.957 294.495 470.086 285.302C474.524 283.053 478.987 280.794 483.5 278.634C483.203 280.532 483.047 282.478 483.047 284.46C483.047 305.176 499.901 322.03 520.617 322.03C541.333 322.03 558.187 305.176 558.187 284.46C558.187 278.369 556.721 272.618 554.138 267.525C554.644 267.662 555.148 267.786 555.657 267.934C561.35 269.583 567.305 266.308 568.955 260.613C570.606 254.919 567.329 248.965 561.635 247.313ZM166.383 300.561C157.504 300.561 150.281 293.338 150.281 284.46C150.281 275.581 157.504 268.358 166.383 268.358C175.261 268.358 182.484 275.581 182.484 284.46C182.484 293.338 175.261 300.561 166.383 300.561ZM399.215 444.811C382.996 468.688 358.476 527.533 344.926 561.475C330.789 527.549 305.131 468.551 288.166 444.633C278.16 430.526 277.875 399.401 280.672 377.033C283.429 354.967 293.739 315.855 311.088 291.061C311.312 290.774 311.52 290.476 311.711 290.17C321.01 277.194 332.291 268.358 345.479 268.358C381.356 268.358 402.358 342.95 406.43 376.978C409.115 399.417 408.837 430.646 399.215 444.811ZM520.617 300.561C511.739 300.561 504.516 293.338 504.516 284.46C504.516 275.581 511.739 268.358 520.617 268.358C529.496 268.358 536.719 275.581 536.719 284.46C536.719 293.338 529.496 300.561 520.617 300.561Z" fill="black"/>
<path d="M311.297 322.03C308.466 322.03 305.702 323.17 303.702 325.17C301.703 327.169 300.562 329.933 300.562 332.764C300.562 335.594 301.703 338.36 303.702 340.359C305.702 342.357 308.466 343.499 311.297 343.499C314.128 343.499 316.892 342.357 318.891 340.359C320.891 338.36 322.031 335.581 322.031 332.764C322.031 329.933 320.891 327.169 318.891 325.17C316.892 323.17 314.128 322.03 311.297 322.03Z" fill="black"/>
<path d="M375.703 322.03C372.872 322.03 370.108 323.17 368.109 325.17C366.109 327.169 364.969 329.933 364.969 332.764C364.969 335.594 366.109 338.36 368.109 340.359C370.108 342.357 372.872 343.499 375.703 343.499C378.534 343.499 381.298 342.357 383.298 340.359C385.297 338.346 386.438 335.581 386.438 332.764C386.438 329.945 385.297 327.169 383.298 325.17C381.298 323.17 378.534 322.03 375.703 322.03Z" fill="black"/>
</svg>
