<?xml version="1.0" encoding="UTF-8"?>
<svg width="301px" height="270px" viewBox="0 0 301 270" version="1.1" xmlns="http://www.w3.org/2000/svg" xmlns:xlink="http://www.w3.org/1999/xlink">
    <title>react-native</title>
    <g id="Page-1" stroke="none" stroke-width="1" fill="none" fill-rule="evenodd">
        <g id="react-native" transform="translate(3, 3)">
            <path d="M147.498617,162 C163.791169,162 177,148.791788 177,132.5 C177,116.208212 163.788403,103 147.498617,103 C131.208831,103 118,116.208212 118,132.5 C118,148.791788 131.2033,162 147.498617,162 Z" id="Path" fill="#087EA4" fill-rule="nonzero"></path>
            <path d="M147.501383,199 C228.962613,199 295,169.227396 295,132.5 C295,95.7726042 228.962613,66 147.501383,66 C66.040153,66 0,95.7726042 0,132.5 C0,169.227396 66.040153,199 147.501383,199 Z" id="Path" stroke="#087EA4" stroke-width="5.333"></path>
            <path d="M90.0224986,165.185097 C130.750434,235.727146 189.497329,278.054034 221.240673,259.727868 C252.986783,241.398938 245.702876,169.355288 204.97494,98.8160052 C164.24977,28.2711913 105.50011,-14.0556971 73.7595308,4.27323379 C42.0134212,22.5993993 49.2973283,94.6430485 90.0224986,165.185097 L90.0224986,165.185097 Z" id="Path" stroke="#087EA4" stroke-width="5.333"></path>
            <path d="M90.0218844,98.8159614 C49.2966945,169.358103 42.0155494,241.399082 73.7561435,259.728037 C105.502268,278.054226 164.249191,235.724517 204.974381,165.185141 C245.702336,94.6402339 252.986247,22.6020206 221.242887,4.27306555 C189.496762,-14.0558895 130.74984,28.27382 90.0218844,98.8159614 Z" id="Path" stroke="#087EA4" stroke-width="5.333"></path>
        </g>
    </g>
</svg>